<?xml version="1.0" encoding="UTF-8"?>
<svg id="uuid-29f1d526-db40-461e-bc0e-e181344bdd87" data-name="Layer 1" xmlns="http://www.w3.org/2000/svg" viewBox="0 0 395.99 129.1">
  <path d="m51.33,5.32c.45.7.84,1.3,1.37,2.13-.92.57-1.74,1.09-2.58,1.58-15.08,8.69-30.15,17.4-45.27,26.02-1.63.93-2.32,1.9-2.31,3.87.09,17.42.08,34.83.01,52.25,0,1.72.46,2.75,2.03,3.51,1.94.94,3.86,2,5.62,3.24,1.75,1.24,3.24,1.28,4.89-.08.76-.63,1.69-1.05,2.77-1.71-2.79-1.62-5.38-3.21-8.06-4.63-1.32-.7-1.9-1.51-1.89-3.09.06-15.67.02-31.33.09-47,0-.88.55-2.18,1.25-2.59,16.38-9.59,32.82-19.08,49.26-28.58.21-.12.46-.16.81-.28.38.62.75,1.24,1.25,2.07-5.65,3.28-11.17,6.49-16.7,9.69-10.45,6.05-20.88,12.12-31.38,18.09-1.5.85-2.03,1.78-2.02,3.49.07,14.42.07,28.83,0,43.25,0,1.69.34,2.83,2.01,3.51,1.22.5,2.46,1.14,3.45,1.99,3.38,2.91,6.53,2.55,9.61-.54-2.59-1.49-5.2-3.1-7.92-4.54-1.35-.71-1.88-1.57-1.87-3.13.06-12.67.01-25.33.08-38,0-.83.49-2.05,1.14-2.43,16.62-9.67,33.3-19.25,50.17-28.96.46.75.86,1.41,1.33,2.19-10.96,6.31-21.78,12.55-32.6,18.79-5.19,2.99-10.37,6.01-15.6,8.94-1.29.72-1.91,1.49-1.9,3.08.07,11.67.06,23.33.01,35,0,1.42.35,2.34,1.69,2.96,1.36.62,2.75,1.3,3.89,2.24,3.34,2.77,6.4,2.44,9.43-.66-2.64-1.57-5.41-3.08-8-4.85-.79-.54-1.53-1.78-1.54-2.7-.11-9.67-.1-19.33,0-29,0-.87.63-2.11,1.34-2.53,16.31-9.55,32.68-19,49.04-28.47.21-.12.46-.18.86-.33.38.58.77,1.17,1.25,1.89-.42.3-.72.56-1.05.75-15.64,9.05-31.27,18.13-46.94,27.12-1.57.9-2.18,1.83-2.15,3.68.11,8.33.09,16.67.01,25-.02,1.62.38,2.65,1.89,3.35,1.35.62,2.75,1.31,3.86,2.28,3.34,2.91,6.33,2.25,9.39-.82-2.72-1.57-5.41-3.19-8.17-4.69-1.17-.63-1.61-1.36-1.6-2.73.08-6.67-.01-13.33.1-20,.01-.86.64-2.09,1.36-2.51,16.26-9.47,32.57-18.86,48.88-28.25.28-.16.59-.26,1.05-.45.4.63.77,1.23,1.27,2.03-6.41,3.71-12.66,7.34-18.92,10.96-9.66,5.58-19.31,11.19-29.02,16.68-1.6.91-2.14,1.9-2.1,3.71.13,5.33.12,10.67,0,16-.04,1.66.49,2.6,1.95,3.32,1.79.88,3.59,1.82,5.16,3.03,2.05,1.58,3.84,1.44,5.78-.05.59-.45,1.29-.75,2.4-1.38-2.77-1.61-5.24-3.18-7.83-4.49-1.62-.82-2.28-1.78-2.18-3.65.17-3.41.11-6.83.02-10.25-.04-1.41.39-2.22,1.65-2.95,16.25-9.31,32.47-18.68,48.67-28.08,1.24-.72,2.18-.75,3.41,0,3.05,1.87,6.25,3.5,9.26,5.43.78.5,1.53,1.77,1.53,2.68.09,18.83.08,37.67,0,56.5,0,.87-.62,2.13-1.33,2.55-16.33,9.51-32.72,18.93-49.09,28.37-.21.12-.46.18-.81.3-.4-.59-.8-1.19-1.36-2.03,5.13-2.96,10.16-5.85,15.19-8.75,10.96-6.32,21.91-12.67,32.91-18.93,1.49-.85,2.04-1.78,2.03-3.51-.07-17.5-.06-35,0-52.5,0-1.7-.37-2.81-2.02-3.51-1.29-.55-2.59-1.23-3.67-2.12-3.26-2.7-6.25-2.45-9.32.85,2.59,1.49,5.19,3.05,7.85,4.48,1.33.71,1.87,1.57,1.86,3.12-.06,15.58,0,31.17-.1,46.75,0,1.01-.72,2.46-1.55,2.95-16.3,9.56-32.68,19-49.04,28.47-.14.08-.31.09-.64.17-.39-.52-.82-1.1-1.4-1.87.87-.55,1.6-1.06,2.37-1.5,15.06-8.72,30.11-17.46,45.22-26.1,1.8-1.03,2.54-2.11,2.53-4.25-.11-14.33-.09-28.67-.02-43,0-1.65-.44-2.63-1.94-3.31-1.29-.58-2.6-1.22-3.67-2.11-3.21-2.67-6.21-2.57-9.33.7,2.57,1.48,5.14,3.07,7.81,4.47,1.43.75,1.95,1.63,1.94,3.29-.08,12.5-.06,25-.03,37.5,0,1.32-.14,2.29-1.5,3.06-16.34,9.33-32.64,18.73-48.96,28.11-.28.16-.59.27-1.05.47-.38-.66-.73-1.26-1.2-2.09,6.19-3.56,12.23-7.04,18.27-10.52,9.95-5.74,19.89-11.51,29.88-17.19,1.42-.81,1.96-1.68,1.95-3.32-.07-11.58-.06-23.17,0-34.75,0-1.43-.4-2.32-1.7-2.95-1.42-.69-2.76-1.54-4.13-2.33q-4.62-2.65-9.29.67c2.79,1.67,5.55,3.19,8.14,4.96.78.53,1.5,1.76,1.51,2.68.11,9.67.1,19.33.02,29,0,.81-.52,2-1.17,2.38-16.6,9.7-33.26,19.32-50.05,29.04-.42-.65-.81-1.25-1.29-2,.56-.39,1-.75,1.48-1.03,15.35-8.89,30.68-17.81,46.08-26.6,1.91-1.09,2.62-2.23,2.58-4.45-.15-8.25-.09-16.5-.03-24.75.01-1.43-.42-2.28-1.69-2.94-1.85-.95-3.74-1.91-5.36-3.18-2.21-1.74-4.14-1.59-6.17.13-.5.42-1.08.73-2.01,1.34,2.85,1.67,5.43,3.27,8.09,4.71,1.25.68,1.72,1.49,1.7,2.93-.08,6.67,0,13.33-.09,20-.01.8-.56,1.96-1.21,2.34-16.48,9.59-33.01,19.09-49.53,28.61-.13.08-.3.09-.58.16-.35-.61-.71-1.24-1.18-2.04,6.08-3.51,12.05-6.95,18.02-10.4,10.02-5.79,20.03-11.61,30.08-17.34,1.39-.79,1.98-1.63,1.94-3.3-.12-5.5-.09-11-.01-16.5.02-1.42-.38-2.3-1.68-2.94-1.57-.77-3.03-1.74-4.54-2.62-4.28-2.49-4.54-2.47-8.78,1.04,2.65,1.53,5.18,3.07,7.8,4.46,1.33.7,1.91,1.52,1.85,3.1-.13,3.58-.12,7.17,0,10.75.05,1.47-.51,2.22-1.73,2.92-16.24,9.33-32.44,18.72-48.71,28-.79.45-2.25.41-3.08-.02-3.18-1.63-6.21-3.56-9.36-5.26C.51,95.35,0,94.58,0,93.11c.05-18.75.02-37.5.09-56.25,0-.89.52-2.21,1.21-2.61C17.9,24.57,34.57,14.98,51.33,5.32Zm10.71,60.59c0-6.81-.21-6.51-4.55-9.57-3.87-2.73-6.84-2.46-10.84-.04-3.53,2.13-4.63,4.31-4.72,8.33-.1,4.54,1.22,7.02,5.27,9.29,3.79,2.13,6.39,2.11,10-.14,3.47-2.17,6.28-4.02,4.85-7.87Z" fill="#fff"/>
  <path d="m325.4,70.58c-.08-1.28-.16-2.58-.27-4.39-1.04.68-1.82,1.17-2.58,1.7-4.85,3.41-10.23,4.71-16.09,4.04-7.35-.84-12.44-5.25-13.94-11.98-1.57-7.08,1.18-13.24,7.56-17.26,4.57-2.88,9.79-3.62,14.88-4.78,2.76-.63,5.55-1.08,8.32-1.61,1.23-3.95-.02-7.71-2.91-8.79-3.8-1.42-8.61.46-10.28,3.94-.31.64-.98,1.55-1.51,1.57-4.64.12-9.29.07-14.18.07.08-5.28,1.95-9.33,6.16-12.08,5.93-3.87,12.61-4.63,19.44-3.95,3.43.34,6.93,1.07,10.15,2.29,5.89,2.23,8.82,6.74,8.78,13.16-.06,10.16-.05,20.33.02,30.5.02,2.46.4,4.92.63,7.56h-14.19Zm-2.03-25.03c-4.49,1.69-8.83,3.1-12.97,4.95-2.86,1.28-3.83,4.08-2.91,6.64.91,2.55,3.47,3.98,6.4,3.56,6.76-.96,10.76-7.08,9.48-15.15Z" fill="#fff"/>
  <path d="m211.11,18.5h15.23v52.11h-15.2c-.07-1.47-.13-2.84-.22-4.72-3.79,4.29-8.44,5.92-13.51,6.25-7.05.46-13.65-1.74-16.14-7.48-.81-1.88-1.59-3.97-1.61-5.97-.14-13.31-.07-26.62-.07-40.11h15.31c0,.97,0,1.86,0,2.75,0,10.08-.02,20.15.01,30.23.02,5.72,2.22,8.09,7.41,8.11,5.51.02,8.72-2.93,8.76-8.28.06-9.99.02-19.98.03-29.98,0-.9,0-1.8,0-2.91Z" fill="#fff"/>
  <path d="m395.04,24.54c-2.83,2.61-5.52,4.98-8.08,7.48-1.08,1.05-1.81.87-2.98.12-4.21-2.71-8.72-4.51-13.88-3.76-.66.09-1.47.09-1.91.47-1.12.96-2.85,2.09-2.88,3.2-.03,1.07,1.58,2.81,2.78,3.16,4.46,1.29,9.06,2.12,13.61,3.14.89.2,1.79.4,2.65.71,6.43,2.29,11.08,6.2,11.57,13.51.49,7.28-2.98,12.4-9.17,15.89-11.97,6.75-31.04,3.78-40.69-6.5,3.18-2.88,6.36-5.76,9.04-8.2,4.07,2.1,7.69,4.28,11.55,5.87,3.61,1.48,7.48,1.1,10.86-.86,1.21-.7,2.28-2.41,2.53-3.82.32-1.76-1.27-2.81-2.93-3.17-4.79-1.06-9.63-1.89-14.39-3.05-6.16-1.52-11.11-4.62-12.66-11.32-1.63-7.03,2.27-14.46,9.17-17.96,5.25-2.67,10.82-3.23,16.54-2.55,6.97.84,13.41,3.11,19.27,7.64Z" fill="#fff"/>
  <path d="m125.55,0h17.38v55.72h27.51v14.93h-44.89V0Z" fill="#fff"/>
  <path d="m274.12,35.97c-1.98-4.06-4.81-6.65-9.17-7.23-3.54-.46-6.36.79-8.55,3.55-4.64,5.86-4.98,16.99-.71,23.11,4.68,6.7,14.01,6.16,17.92-1.03.31-.57.62-1.14,1.03-1.88,3.83,1.98,7.56,3.91,11.3,5.84-8.87,15.94-29.6,18.88-42.16,6.14-1.27-1.29-2.46-2.77-3.26-4.38-5.21-10.41-5.15-20.93.35-31.12,5.2-9.64,17.13-14.1,28.55-11.33,6.91,1.67,12.13,5.55,16.01,11.88-3.79,2.16-7.43,4.25-11.31,6.46Z" fill="#fff"/>
  <path d="m164.03,128.15h-10.91v-18.9h-16.5v18.87h-11.11v-44.55h11.01v15.87h16.49v-15.9h11.02v44.6Z" fill="#fff"/>
  <path d="m320.52,128.16h-9.42c-.05-.91-.13-1.78-.14-2.66-.01-5.58.04-11.16-.02-16.74-.05-4.54-1.56-6.59-4.7-6.62-3.31-.03-4.95,2.1-4.98,6.64-.04,5.5,0,10.99,0,16.49,0,.9,0,1.8,0,2.86h-9.72c0-4.19,0-8.33,0-12.46,0-2.75.04-5.5-.01-8.25-.06-3.35-1.55-5.04-4.47-5.17-2.93-.13-4.92,1.63-5.01,4.95-.17,5.91-.09,11.82-.11,17.74,0,.99,0,1.97,0,3.16h-9.45v-32.69h9.23c.11.72.24,1.51.42,2.68,2.63-2.55,5.64-3.88,9.15-3.87,3.54.02,6.75.93,9.21,3.83,3.5-2.85,7.31-4.17,11.68-3.71,5.13.54,8.25,3.65,8.32,8.81.11,8.24.03,16.48.03,25.02Z" fill="#fff"/>
  <path d="m254.16,97.35v-13.78h9.24v44.58h-8.32c-.18-.8-.36-1.59-.62-2.72-3.99,3.86-8.61,4.36-13.33,2.76-4.85-1.64-7.67-5.45-8.87-10.34-1.15-4.7-1.03-9.43.57-14.02,3.13-9.03,11.94-12.16,20.08-7.21.27.16.54.31,1.26.73Zm.54,14.63c-.35-2.21-.48-3.88-.9-5.48-.81-3.11-2.95-4.98-5.48-5.03-2.5-.05-4.97,1.74-5.93,4.58-1.33,3.9-1.3,7.86.09,11.75.81,2.27,2.32,3.91,4.87,4.07,2.73.18,4.72-1.25,5.7-3.66.86-2.12,1.2-4.45,1.66-6.22Z" fill="#fff"/>
  <path d="m357.76,128.18h-8.62c-.18-.73-.36-1.5-.62-2.57-.81.48-1.56.9-2.29,1.35-3.97,2.44-8.29,2.73-12.48,1.16-6.32-2.36-7.92-10.53-3.36-15.56,2.56-2.83,6.01-3.75,9.5-4.57,1.78-.42,3.63-.6,5.37-1.13.92-.28,2.26-.96,2.42-1.68.39-1.75-.02-3.53-2.04-4.31-2.23-.86-5,.19-6.3,2.21-.37.58-1.11,1.27-1.71,1.3-2.73.14-5.47.06-8.2.06-.06-4.69,2.41-8.04,7.17-9.36,4.82-1.34,9.73-1.3,14.51.31,4.44,1.5,6.32,4.32,6.33,9.05,0,6.08-.02,12.16.02,18.24.01,1.73.2,3.46.32,5.49Zm-10.23-15.77c-2.57.89-4.95,1.6-7.24,2.55-2.52,1.04-3.45,2.92-2.69,4.88.74,1.88,3.17,2.6,5.58,1.66,3.41-1.33,4.95-4.41,4.34-9.08Z" fill="#fff"/>
  <path d="m191.44,106.44c.17-2.43.41-4.6-2.14-5.56-2.35-.89-4.81.19-6.37,2.51-.34.51-1.1.99-1.69,1.02-2.65.11-5.31.05-7.94.05-.45-3.6,1.28-6.89,4.93-8.47,6.1-2.64,12.35-2.53,18.39.24,3.03,1.39,4.54,4.01,4.49,7.46-.06,4.66-.01,9.33-.01,14,0,3.47,0,6.94,0,10.51h-8.36c-.11-.83-.21-1.62-.35-2.67-.83.49-1.6.9-2.32,1.39-3.42,2.3-7.27,2.42-11.07,1.72-3.61-.67-6.01-3.07-7.05-6.68-1.07-3.69-.19-6.91,2.43-9.67,2.55-2.68,5.95-3.55,9.38-4.31,2.51-.56,5.05-1.01,7.68-1.54Zm-.1,5.94c-2.62.92-5.08,1.65-7.43,2.64-2.43,1.02-3.31,2.81-2.59,4.64.79,2.03,2.96,2.79,5.45,1.9,3.44-1.22,5.05-4.32,4.57-9.19Z" fill="#fff"/>
  <path d="m366.61,128.29v-33.11c2.96,0,5.78-.11,8.57.08.63.04,1.18,1.12,1.9,1.86,2.71-2.24,6.17-3.04,9.95-2.77,5.36.38,8.67,3.29,8.83,8.61.24,8.31.06,16.63.06,25.14h-9.44c-.06-.93-.17-1.89-.19-2.84-.07-6.16-.07-12.31-.21-18.47-.07-3.12-1.65-4.63-4.6-4.75-2.78-.11-4.87,1.49-4.98,4.42-.24,6.23-.31,12.48-.2,18.71.05,2.49-.56,3.47-3.17,3.17-2.11-.24-4.28-.05-6.53-.05Z" fill="#fff"/>
  <path d="m219.62,128.15h-9.45v-32.84h9.19c.09.88.19,1.74.26,2.38,3.01-1.11,5.98-2.2,9.28-3.41v8.98c-1.65.32-3.27.57-4.86.96-3.4.84-4.25,1.92-4.27,5.4-.03,5.24,0,10.48-.01,15.72,0,.89-.08,1.78-.13,2.8Z" fill="#fff"/>
</svg>