<?xml version="1.0" encoding="UTF-8"?><svg id="uuid-b9ee76f2-bdba-475a-b6da-857d2c3947e2" xmlns="http://www.w3.org/2000/svg" viewBox="0 0 120 120"><defs><style>.uuid-3cc89e6d-f77a-446b-869c-2d73ed9c3eb3{fill:#fff;}</style></defs><g id="uuid-40145c48-a573-4e04-b6b6-9ad221ff0e33"><path class="uuid-3cc89e6d-f77a-446b-869c-2d73ed9c3eb3" d="m59.17,0c.51.7.97,1.31,1.58,2.15-1.07.57-2,1.1-2.97,1.59C40.39,12.49,23.02,21.26,5.59,29.95c-1.88.94-2.68,1.91-2.66,3.9.11,17.55.09,35.09.02,52.64,0,1.73.53,2.77,2.34,3.54,2.24.94,4.45,2.01,6.48,3.27,2.02,1.25,3.74,1.29,5.64-.08.88-.63,1.95-1.06,3.2-1.72-3.22-1.63-6.21-3.23-9.29-4.67-1.52-.71-2.19-1.52-2.18-3.11.07-15.78.02-31.57.1-47.35,0-.89.63-2.2,1.44-2.61C29.56,24.1,48.51,14.54,67.46,4.96c.24-.12.53-.16.93-.29.43.63.87,1.25,1.44,2.08-6.51,3.3-12.88,6.54-19.25,9.77-12.05,6.09-24.08,12.21-36.17,18.23-1.73.86-2.34,1.79-2.33,3.52.08,14.52.08,29.05,0,43.57,0,1.7.39,2.85,2.32,3.53,1.41.5,2.83,1.15,3.98,2,3.9,2.93,7.53,2.57,11.07-.54-2.98-1.51-6-3.13-9.13-4.57-1.55-.72-2.16-1.59-2.15-3.15.07-12.76.01-25.52.1-38.28,0-.84.57-2.07,1.31-2.45,19.16-9.74,38.39-19.39,57.84-29.17.53.76.99,1.43,1.53,2.21-12.63,6.36-25.1,12.64-37.58,18.92-5.99,3.01-11.96,6.06-17.99,9.01-1.49.73-2.2,1.51-2.19,3.1.08,11.75.07,23.51.01,35.26,0,1.43.4,2.35,1.95,2.98,1.56.63,3.17,1.31,4.48,2.26,3.85,2.79,7.38,2.46,10.87-.66-3.05-1.59-6.23-3.11-9.22-4.89-.91-.54-1.77-1.79-1.78-2.72-.13-9.74-.12-19.48-.01-29.21,0-.87.72-2.13,1.55-2.55,18.81-9.62,37.67-19.14,56.53-28.68.24-.12.53-.18.99-.33.44.58.89,1.18,1.44,1.9-.49.3-.83.56-1.21.75-18.03,9.12-36.05,18.26-54.12,27.32-1.81.91-2.51,1.85-2.48,3.7.13,8.39.11,16.79.01,25.18-.02,1.63.44,2.67,2.18,3.38,1.56.63,3.17,1.32,4.45,2.29,3.85,2.93,7.3,2.26,10.82-.83-3.13-1.58-6.24-3.22-9.42-4.72-1.35-.64-1.86-1.37-1.84-2.75.09-6.72-.02-13.43.11-20.15.02-.87.74-2.11,1.57-2.53,18.74-9.54,37.55-18.99,56.34-28.46.32-.16.68-.26,1.21-.45.46.64.89,1.24,1.47,2.04-7.38,3.74-14.59,7.4-21.81,11.04-11.14,5.62-22.26,11.27-33.45,16.8-1.85.91-2.47,1.91-2.42,3.74.15,5.37.14,10.75,0,16.12-.04,1.67.57,2.62,2.25,3.34,2.06.89,4.14,1.83,5.95,3.05,2.36,1.59,4.43,1.46,6.66-.05.67-.45,1.48-.76,2.76-1.39-3.2-1.62-6.04-3.2-9.03-4.53-1.87-.82-2.62-1.8-2.51-3.68.2-3.43.13-6.88.02-10.32-.04-1.42.44-2.23,1.91-2.97,18.73-9.38,37.43-18.82,56.1-28.29,1.43-.73,2.52-.75,3.93,0,3.52,1.88,7.21,3.53,10.67,5.47.9.51,1.76,1.78,1.77,2.7.1,18.97.1,37.95.01,56.92,0,.88-.71,2.15-1.54,2.57-18.83,9.58-37.72,19.07-56.6,28.58-.24.12-.53.18-.93.31-.46-.6-.92-1.2-1.57-2.05,5.92-2.98,11.72-5.9,17.51-8.82,12.64-6.37,25.26-12.77,37.94-19.07,1.72-.86,2.35-1.79,2.34-3.53-.08-17.63-.07-35.26,0-52.89,0-1.71-.43-2.83-2.33-3.53-1.49-.55-2.99-1.24-4.23-2.14-3.76-2.72-7.21-2.46-10.74.86,2.99,1.5,5.98,3.08,9.05,4.51,1.53.71,2.16,1.58,2.15,3.15-.07,15.7,0,31.4-.12,47.1,0,1.02-.83,2.48-1.78,2.97-18.8,9.63-37.67,19.15-56.53,28.68-.16.08-.36.09-.74.17-.45-.53-.95-1.1-1.61-1.88,1-.55,1.85-1.06,2.73-1.51,17.37-8.78,34.72-17.59,52.13-26.29,2.08-1.04,2.93-2.12,2.91-4.28-.12-14.44-.1-28.88-.02-43.32,0-1.66-.5-2.65-2.24-3.33-1.48-.58-3-1.23-4.23-2.13-3.7-2.68-7.16-2.59-10.76.7,2.96,1.5,5.93,3.09,9,4.5,1.65.75,2.25,1.64,2.24,3.32-.09,12.59-.06,25.18-.03,37.78,0,1.33-.16,2.31-1.72,3.08-18.84,9.4-37.63,18.87-56.44,28.31-.32.16-.68.27-1.21.47-.44-.66-.84-1.27-1.39-2.1,7.13-3.59,14.1-7.09,21.06-10.6,11.48-5.78,22.93-11.6,34.44-17.32,1.63-.81,2.26-1.69,2.25-3.35-.08-11.67-.07-23.34,0-35.01,0-1.45-.47-2.34-1.96-2.97-1.64-.69-3.19-1.55-4.77-2.34q-5.32-2.67-10.71.68c3.21,1.68,6.4,3.21,9.38,4.99.89.53,1.73,1.77,1.75,2.7.13,9.74.11,19.48.02,29.21,0,.82-.6,2.01-1.35,2.39-19.14,9.78-38.34,19.47-57.69,29.26-.49-.66-.93-1.26-1.49-2.01.65-.4,1.15-.75,1.71-1.03,17.69-8.95,35.37-17.94,53.13-26.8,2.2-1.1,3.02-2.25,2.98-4.49-.17-8.31-.11-16.62-.03-24.93.01-1.44-.48-2.3-1.95-2.96-2.13-.96-4.31-1.92-6.18-3.21-2.55-1.76-4.77-1.6-7.11.13-.57.42-1.25.74-2.32,1.35,3.29,1.68,6.26,3.29,9.33,4.74,1.45.68,1.98,1.5,1.96,2.95-.09,6.72,0,13.43-.1,20.15-.01.81-.64,1.98-1.39,2.36-19,9.66-38.05,19.23-57.1,28.82-.15.08-.35.09-.67.16-.4-.61-.82-1.25-1.35-2.05,7-3.53,13.89-7,20.77-10.48,11.55-5.83,23.09-11.7,34.67-17.47,1.61-.8,2.28-1.65,2.24-3.32-.14-5.54-.11-11.08-.02-16.62.02-1.43-.44-2.32-1.94-2.96-1.8-.77-3.49-1.75-5.24-2.64-4.93-2.51-5.23-2.49-10.12,1.04,3.06,1.54,5.98,3.1,8.99,4.49,1.53.71,2.2,1.53,2.14,3.12-.15,3.61-.13,7.22,0,10.83.05,1.48-.59,2.24-2,2.94-18.72,9.39-37.4,18.86-56.15,28.21-.91.45-2.59.41-3.55-.02-3.67-1.64-7.16-3.58-10.79-5.3C.58,90.7,0,89.93,0,88.45c.06-18.89.02-37.78.1-56.67,0-.9.59-2.23,1.39-2.63C20.64,19.39,39.85,9.74,59.17,0Zm12.35,61.04c0-6.86-.25-6.55-5.25-9.64-4.46-2.75-7.89-2.48-12.5-.04-4.07,2.15-5.34,4.35-5.45,8.4-.12,4.57,1.4,7.07,6.07,9.36,4.37,2.14,7.37,2.13,11.53-.15,4-2.18,7.24-4.05,5.59-7.92Z"/></g></svg>